<svg width="154" height="21" viewBox="0 0 154 21" fill="none" xmlns="http://www.w3.org/2000/svg">
<g clip-path="url(#clip0_4299_216154)">
<path d="M152.28 5.78449C151.6 5.78449 151.042 5.23722 151.042 4.56267C151.042 3.88813 151.6 3.33449 152.28 3.33449C152.96 3.33449 153.519 3.88813 153.519 4.56267C153.519 5.23722 152.96 5.78449 152.28 5.78449ZM152.28 3.0354C151.433 3.0354 150.74 3.72267 150.74 4.56267C150.74 5.40267 151.433 6.08995 152.28 6.08995C153.127 6.08995 153.82 5.40267 153.82 4.56267C153.82 3.72267 153.127 3.0354 152.28 3.0354Z" fill="black"/>
<path d="M152.382 4.4991L152.055 4.50546L152.049 4.11092H152.376C152.498 4.10455 152.594 4.18092 152.594 4.30183C152.601 4.42273 152.504 4.4991 152.382 4.4991ZM152.915 4.29546C152.909 4.02819 152.723 3.83728 152.421 3.83728L151.734 3.85001L151.754 5.28819H152.068L152.062 4.77273H152.286L152.581 5.28183L152.934 5.27546L152.601 4.72819C152.755 4.69001 152.915 4.55001 152.915 4.29546Z" fill="black"/>
<path d="M33.2601 14.7512H29.4108V5.94777H33.1549C34.1649 5.94777 34.7957 6.59432 34.7957 7.47059C34.7957 8.34686 34.1649 8.97241 33.1549 8.97241H28.8749V11.5179H33.2601C34.4382 11.5179 35.069 12.2688 35.069 13.1444C35.069 14.146 34.3959 14.7512 33.2601 14.7512ZM35.4264 10.1408C36.7521 9.86968 37.8461 8.70132 37.8461 6.94941C37.8461 5.0925 36.4787 3.40295 33.8068 3.40295H26.4238V17.317H34.0385C36.7097 17.317 38.1188 15.6479 38.1188 13.5619C38.1188 11.8093 36.9202 10.3705 35.4264 10.1408Z" fill="black"/>
<path d="M46.8617 9.76519H43.6325V12.373H45.9153L48.6706 17.3169H52.099L48.9439 12.0179C50.4589 11.6635 52.015 10.3494 52.015 7.88792M52.015 7.88792C52.015 5.3011 50.2273 3.40283 47.3032 3.40283H40.7402V17.3169H43.7272V6.01065H46.8617C48.061 6.01065 48.9651 6.71956 48.9651 7.88792C48.9651 9.05629 48.061 9.76519 46.8617 9.76519" fill="black"/>
<path d="M74.7248 12.3521L76.9122 6.36523L79.1003 12.3521H74.7248ZM75.0405 3.40295L69.6133 17.317H73.0205L73.9041 14.96H79.9204L80.7828 17.317H84.1907L78.7846 3.40295H75.0405Z" fill="black"/>
<path d="M92.3039 14.7093H89.7584V6.01026H92.3039C95.1857 6.01026 96.7 7.90853 96.7 10.3706C96.7 12.7277 95.0804 14.7093 92.3039 14.7093ZM92.3039 3.40308H86.7715V17.3172H92.3039C96.7 17.3172 99.7498 14.5636 99.7498 10.3706C99.7498 6.17762 96.7 3.40308 92.3039 3.40308Z" fill="black"/>
<path d="M145 3.40015L141.321 9.29924L137.642 3.40015H134.34V17.3168H137.327V8.22124L140.543 13.0716C140.912 13.6259 141.731 13.6259 142.099 13.0716L145.316 8.22124V17.3168H148.303V3.40015H145Z" fill="black"/>
<path d="M61.487 14.8553C59.0031 14.8553 56.9902 12.8584 56.9902 10.3957C56.9902 7.93233 59.0031 5.93542 61.487 5.93542C63.9702 5.93542 65.9838 7.93233 65.9838 10.3957C65.9838 12.8584 63.9702 14.8553 61.487 14.8553ZM61.487 3.05969C57.4015 3.05969 54.0898 6.34396 54.0898 10.3957C54.0898 14.4468 57.4015 17.7311 61.487 17.7311C65.5718 17.7311 68.8841 14.4468 68.8841 10.3957C68.8841 6.34396 65.5718 3.05969 61.487 3.05969Z" fill="black"/>
<path d="M113.193 12.5535C112.426 13.9255 110.952 14.8552 109.258 14.8552C106.775 14.8552 104.761 12.8583 104.761 10.3956C104.761 7.93221 106.775 5.93593 109.258 5.93593C110.938 5.93593 112.4 6.85103 113.172 8.20457L115.27 6.1243C113.928 4.2693 111.736 3.05957 109.258 3.05957C105.172 3.05957 101.861 6.34384 101.861 10.3956C101.861 14.4467 105.172 17.7316 109.258 17.7316C111.749 17.7316 113.952 16.5085 115.292 14.6357L113.193 12.5535Z" fill="black"/>
<path d="M124.833 14.8553C122.349 14.8553 120.336 12.8584 120.336 10.3957C120.336 7.93233 122.349 5.93542 124.833 5.93542C127.316 5.93542 129.329 7.93233 129.329 10.3957C129.329 12.8584 127.316 14.8553 124.833 14.8553ZM124.833 3.05969C120.747 3.05969 117.436 6.34396 117.436 10.3957C117.436 14.4468 120.747 17.7311 124.833 17.7311C128.918 17.7311 132.23 14.4468 132.23 10.3957C132.23 6.34396 128.918 3.05969 124.833 3.05969Z" fill="black"/>
<path d="M10.6 20.8297C16.3538 20.8297 21.0183 16.2041 21.0183 10.4981C21.0183 4.79211 16.3538 0.166504 10.6 0.166504C4.84608 0.166504 0.181641 4.79211 0.181641 10.4981C0.181641 16.2041 4.84608 20.8297 10.6 20.8297Z" fill="#CC092F"/>
<path d="M19.7787 13.2893C18.5871 12.8183 17.4963 12.9762 16.4029 13.6335C16.4029 13.6335 16.0044 13.8747 15.8851 13.9492C15.3756 14.2661 14.895 14.5664 14.433 14.5664C13.9922 14.5664 13.5584 14.4493 13.3749 13.6036C13.0887 12.2844 12.3906 9.0428 12.0858 7.43725C11.9067 6.49352 11.8086 5.98507 11.7065 5.63952C11.5269 5.03243 11.1983 4.70216 10.7318 4.64934C10.7318 4.64934 10.6587 4.63916 10.599 4.63916C10.54 4.63916 10.4591 4.65061 10.4591 4.65061C9.99714 4.70534 9.67053 5.03561 9.49215 5.63952C9.39012 5.98507 9.29195 6.49352 9.11292 7.43725C8.80813 9.0428 8.11 12.2844 7.82381 13.6036C7.6403 14.4493 7.20653 14.5664 6.7657 14.5664C6.3037 14.5664 5.8231 14.2661 5.31361 13.9492C5.19426 13.8747 4.79515 13.6335 4.79515 13.6335C3.70239 12.9762 2.61091 12.8183 1.41998 13.2893C1.16267 13.3911 0.909235 13.5051 0.667969 13.6203C0.832877 14.1332 1.03817 14.638 1.27751 15.1121C1.54123 14.9835 1.81781 14.856 2.10015 14.7733C2.50696 14.6543 2.92405 14.6479 3.3283 14.7822C3.721 14.9126 4.0707 15.1436 4.41913 15.3606C5.07555 15.7698 5.81925 16.2337 6.7657 16.2337C8.16839 16.2337 9.1527 15.4033 9.46712 13.9549C9.71095 12.8323 10.2512 10.3263 10.5984 8.59798C10.5984 8.59798 11.4877 12.8323 11.7309 13.9549C12.0453 15.4033 13.0303 16.2337 14.433 16.2337C15.3794 16.2337 16.1231 15.7698 16.7796 15.3606C17.128 15.1436 17.4777 14.9126 17.8704 14.7822C18.274 14.6479 18.6917 14.6543 19.0985 14.7733C19.3809 14.856 19.657 14.9837 19.9208 15.1122C20.1607 14.6381 20.3655 14.1331 20.5304 13.6202C20.2891 13.505 20.036 13.3911 19.7787 13.2893Z" fill="white"/>
</g>
<defs>
<clipPath id="clip0_4299_216154">
<rect width="154" height="21" fill="white"/>
</clipPath>
</defs>
</svg>
