<svg width="129" height="19" viewBox="0 0 129 19" fill="none" xmlns="http://www.w3.org/2000/svg">
<g clip-path="url(#clip0_4864_274541)">
<path d="M126.865 5.7263C126.302 5.7263 125.84 5.27314 125.84 4.71459C125.84 4.15604 126.302 3.69761 126.865 3.69761C127.428 3.69761 127.89 4.15604 127.89 4.71459C127.89 5.27314 127.428 5.7263 126.865 5.7263ZM126.865 3.44995C126.164 3.44995 125.59 4.01904 125.59 4.71459C125.59 5.41014 126.164 5.97923 126.865 5.97923C127.566 5.97923 128.14 5.41014 128.14 4.71459C128.14 4.01904 127.566 3.44995 126.865 3.44995Z" fill="#4F4F4F"/>
<path d="M126.949 4.66202L126.678 4.66729L126.672 4.34059H126.943C127.044 4.33533 127.124 4.39856 127.124 4.49867C127.129 4.59879 127.05 4.66202 126.949 4.66202ZM127.39 4.4934C127.384 4.27209 127.23 4.11401 126.981 4.11401L126.412 4.12455L126.428 5.31542H126.688L126.683 4.8886H126.869L127.113 5.31015L127.406 5.30488L127.129 4.85172C127.257 4.8201 127.39 4.70418 127.39 4.4934Z" fill="#4F4F4F"/>
<path d="M28.3111 13.1512H25.1237V5.8616H28.224C29.0603 5.8616 29.5826 6.39696 29.5826 7.12255C29.5826 7.84813 29.0603 8.36611 28.224 8.36611H24.68V10.4738H28.3111C29.2866 10.4738 29.8089 11.0956 29.8089 11.8207C29.8089 12.6501 29.2516 13.1512 28.3111 13.1512ZM30.1049 9.33356C31.2026 9.10908 32.1085 8.14163 32.1085 6.69099C32.1085 5.1534 30.9762 3.75439 28.7638 3.75439H22.6504V15.2758H28.9556C31.1675 15.2758 32.3343 13.8936 32.3343 12.1663C32.3343 10.7152 31.3418 9.52378 30.1049 9.33356Z" fill="#4F4F4F"/>
<path d="M39.5747 9.02242H36.9007V11.1818H38.791L41.0725 15.2755H43.9114L41.2988 10.8878C42.5533 10.5943 43.8417 9.50615 43.8417 7.46797M43.8417 7.46797C43.8417 5.32599 42.3615 3.75415 39.9402 3.75415H34.5059V15.2755H36.9792V5.91352H39.5747C40.5677 5.91352 41.3164 6.50052 41.3164 7.46797C41.3164 8.43542 40.5677 9.02242 39.5747 9.02242" fill="#4F4F4F"/>
<path d="M62.6466 11.1646L64.4579 6.20727L66.2697 11.1646H62.6466ZM62.908 3.75439L58.4141 15.2758H61.2354L61.967 13.324H66.9487L67.6628 15.2758H70.4847L66.0083 3.75439H62.908Z" fill="#4F4F4F"/>
<path d="M77.2022 13.1164H75.0944V5.91324H77.2022C79.5883 5.91324 80.8423 7.48508 80.8423 9.52378C80.8423 11.4755 79.5012 13.1164 77.2022 13.1164ZM77.2022 3.75439H72.6211V15.2758H77.2022C80.8423 15.2758 83.3676 12.9957 83.3676 9.52378C83.3676 6.05182 80.8423 3.75439 77.2022 3.75439Z" fill="#4F4F4F"/>
<path d="M120.835 3.75195L117.789 8.63662L114.742 3.75195H112.008V15.2754H114.482V7.74399L117.145 11.7603C117.45 12.2192 118.128 12.2192 118.433 11.7603L121.096 7.74399V15.2754H123.57V3.75195H120.835Z" fill="#4F4F4F"/>
<path d="M51.6837 13.2372C49.6269 13.2372 47.9602 11.5837 47.9602 9.54445C47.9602 7.50469 49.6269 5.85118 51.6837 5.85118C53.7399 5.85118 55.4072 7.50469 55.4072 9.54445C55.4072 11.5837 53.7399 13.2372 51.6837 13.2372ZM51.6837 3.46997C48.3008 3.46997 45.5586 6.18947 45.5586 9.54445C45.5586 12.8989 48.3008 15.6184 51.6837 15.6184C55.0661 15.6184 57.8088 12.8989 57.8088 9.54445C57.8088 6.18947 55.0661 3.46997 51.6837 3.46997Z" fill="#4F4F4F"/>
<path d="M94.4979 11.3313C93.8629 12.4673 92.6425 13.2372 91.2398 13.2372C89.1836 13.2372 87.5163 11.5837 87.5163 9.54445C87.5163 7.50469 89.1836 5.85171 91.2398 5.85171C92.6308 5.85171 93.8417 6.60943 94.4809 7.73022L96.2183 6.00768C95.1068 4.47167 93.2918 3.46997 91.2398 3.46997C87.8569 3.46997 85.1152 6.18947 85.1152 9.54445C85.1152 12.8989 87.8569 15.6189 91.2398 15.6189C93.3029 15.6189 95.127 14.6062 96.2364 13.0554L94.4979 11.3313Z" fill="#4F4F4F"/>
<path d="M104.137 13.2372C102.08 13.2372 100.413 11.5837 100.413 9.54445C100.413 7.50469 102.08 5.85118 104.137 5.85118C106.193 5.85118 107.86 7.50469 107.86 9.54445C107.86 11.5837 106.193 13.2372 104.137 13.2372ZM104.137 3.46997C100.754 3.46997 98.0117 6.18947 98.0117 9.54445C98.0117 12.8989 100.754 15.6184 104.137 15.6184C107.519 15.6184 110.262 12.8989 110.262 9.54445C110.262 6.18947 107.519 3.46997 104.137 3.46997Z" fill="#4F4F4F"/>
<path d="M9.54667 18.1843C14.3111 18.1843 18.1734 14.3542 18.1734 9.6294C18.1734 4.90464 14.3111 1.07446 9.54667 1.07446C4.78225 1.07446 0.919922 4.90464 0.919922 9.6294C0.919922 14.3542 4.78225 18.1843 9.54667 18.1843Z" fill="#4F4F4F"/>
<path d="M17.1486 11.9407C16.1619 11.5507 15.2587 11.6814 14.3533 12.2257C14.3533 12.2257 14.0234 12.4254 13.9245 12.4871C13.5027 12.7495 13.1047 12.9982 12.7222 12.9982C12.3571 12.9982 11.998 12.9013 11.846 12.201C11.609 11.1086 11.0309 8.42445 10.7786 7.095C10.6303 6.31356 10.549 5.89254 10.4646 5.60641C10.3158 5.10372 10.0438 4.83024 9.65748 4.78651C9.65748 4.78651 9.59691 4.77808 9.54749 4.77808C9.49861 4.77808 9.43167 4.78756 9.43167 4.78756C9.04911 4.83288 8.77867 5.10635 8.63096 5.60641C8.54648 5.89254 8.46519 6.31356 8.31695 7.095C8.06457 8.42445 7.48649 11.1086 7.24952 12.201C7.09756 12.9013 6.73839 12.9982 6.37337 12.9982C5.99081 12.9982 5.59285 12.7495 5.17098 12.4871C5.07216 12.4254 4.74167 12.2257 4.74167 12.2257C3.83683 11.6814 2.93305 11.5507 1.94691 11.9407C1.73385 12.025 1.524 12.1194 1.32422 12.2148C1.46077 12.6395 1.63076 13.0575 1.82894 13.45C2.04731 13.3436 2.27633 13.238 2.51011 13.1695C2.84697 13.0709 3.19233 13.0657 3.52707 13.1769C3.85224 13.2849 4.14181 13.4762 4.43032 13.6558C4.97386 13.9947 5.58966 14.3788 6.37337 14.3788C7.53484 14.3788 8.34989 13.6911 8.61024 12.4918C8.81214 11.5623 9.25952 9.48727 9.54696 8.05612C9.54696 8.05612 10.2834 11.5623 10.4847 12.4918C10.7451 13.6911 11.5607 14.3788 12.7222 14.3788C13.5059 14.3788 14.1217 13.9947 14.6652 13.6558C14.9537 13.4762 15.2433 13.2849 15.5685 13.1769C15.9027 13.0657 16.2485 13.0709 16.5854 13.1695C16.8192 13.238 17.0479 13.3437 17.2662 13.4501C17.465 13.0576 17.6345 12.6394 17.771 12.2147C17.5713 12.1193 17.3617 12.025 17.1486 11.9407Z" fill="white"/>
</g>
<defs>
<clipPath id="clip0_4864_274541">
<rect width="127.518" height="17.3888" fill="white" transform="translate(0.769531 0.936523)"/>
</clipPath>
</defs>
</svg>
