<svg width="112" height="17" viewBox="0 0 112 17" fill="none" xmlns="http://www.w3.org/2000/svg">
<g clip-path="url(#clip0_4864_274505)">
<path d="M88.7129 7.17023L89.0391 7.04373C93.9437 5.20839 107.885 3.14668 101.045 12.35C100.923 12.5143 100.797 12.6807 100.661 12.8516C124.829 -2.87865 104.108 -2.54132 88.7218 7.17023" fill="#4F4F4F"/>
<path d="M62.7285 13.4773V11.6819C62.7285 9.74007 61.4657 8.62378 58.6983 8.62378H50.1585V10.954H57.0383C57.7174 10.954 57.9593 11.1493 57.9593 11.6819V11.7796H52.4865C50.1585 11.7796 49.4284 12.7516 49.4284 14.0122V14.3029C49.4154 14.5504 49.4514 14.7979 49.5344 15.0314C49.6175 15.2649 49.7458 15.4796 49.9122 15.6633C50.5935 16.2958 51.854 16.4889 53.6006 16.4889H58.3565C61.4635 16.4889 62.7241 15.761 62.7241 13.4796L62.7285 13.4773ZM57.2424 14.1964H54.6614C54.2176 14.1964 53.9335 14.0521 53.9335 13.7104C53.9335 13.3686 54.1266 13.1289 54.6614 13.1289H57.9615V13.4685C57.9615 13.9123 57.7662 14.1964 57.2336 14.1964" fill="#4F4F4F"/>
<path d="M72.1738 11.9327V13.2931C72.1738 15.2905 73.4344 16.4001 76.2018 16.4001H84.9369V14.112H77.8996C77.1739 14.112 76.9297 13.8701 76.9297 13.3353V13.2864H82.4136C84.3532 13.2864 85.5206 12.6073 85.5206 11.1493V10.8586C85.5206 9.54918 84.7926 8.57715 81.4438 8.57715H76.5436C73.4854 8.57715 72.176 9.64461 72.176 11.926L72.1738 11.9327ZM77.6599 10.8586H80.2809C80.7247 10.8586 81.0088 11.005 81.0088 11.3446C81.0088 11.6841 80.8645 11.8772 80.2809 11.8772H76.9297V11.5865C76.9297 11.1426 77.125 10.8586 77.6577 10.8586" fill="#4F4F4F"/>
<path d="M71.5133 8.71924H65.3504C64.3783 8.71924 63.748 9.25408 63.748 10.1263V16.3891H68.504V11.0894H71.5133V8.71924Z" fill="#4F4F4F"/>
<path d="M45.0606 7.31226H40.2559V16.3425H48.7024V14.0123H45.0606V7.31226Z" fill="#4F4F4F"/>
<path d="M39.1425 11.0893H32.882C32.2029 11.0893 31.6702 11.4777 31.6702 12.4986C31.6702 13.6637 32.3005 14.0032 32.9308 14.0032H39.1914V16.3335H31.5238C28.2725 16.3335 26.8633 15.3614 26.8633 12.8381V12.2545C26.8633 10.1195 28.1727 8.70361 31.3773 8.70361H39.1448V11.0893" fill="#4F4F4F"/>
<path d="M16.0908 16.3424L21.1374 11.7796V16.3424H25.8955V7.31665H23.1281C21.963 7.31665 21.1307 7.80267 20.3606 8.48177C19.4885 9.25852 16.3327 11.9771 16.3327 11.9771V7.31665H13.5186C11.9185 7.31665 11.1418 7.8981 10.2185 8.57942C9.6371 9.06544 0.269531 16.3469 0.269531 16.3469H5.94644L11.5279 11.7352V16.3469H16.0908" fill="#4F4F4F"/>
<path d="M86.2656 16.3913V8.71924H93.8356C97.6705 8.71924 98.9799 9.49599 98.9799 12.2146V16.3913H94.2239V12.9913C94.2239 12.0681 93.7401 11.2426 92.3309 11.2426H91.0215V16.3891H86.2656" fill="#4F4F4F"/>
</g>
<defs>
<clipPath id="clip0_4864_274505">
<rect width="111.448" height="16.123" fill="white" transform="translate(0.269531 0.365723)"/>
</clipPath>
</defs>
</svg>
