<svg width="154" height="23" viewBox="0 0 154 23" fill="none" xmlns="http://www.w3.org/2000/svg">
<g clip-path="url(#clip0_4299_216136)">
<path d="M121.791 9.56046L122.241 9.38586C129.011 6.85272 148.253 4.00715 138.812 16.7096C138.644 16.9363 138.469 17.166 138.282 17.4019C171.639 -4.30902 143.039 -3.84344 121.803 9.56046" fill="#FF8000"/>
<path d="M85.9288 18.2657V15.7876C85.9288 13.1075 84.1859 11.5668 80.3663 11.5668H68.5797V14.783H78.0751C79.0124 14.783 79.3463 15.0525 79.3463 15.7876V15.9224H71.7928C68.5797 15.9224 67.5719 17.264 67.5719 19.0038V19.4051C67.554 19.7466 67.6037 20.0884 67.7183 20.4106C67.8329 20.7328 68.0101 21.0292 68.2397 21.2828C69.18 22.1557 70.9198 22.4222 73.3305 22.4222H79.8946C84.1828 22.4222 85.9227 21.4175 85.9227 18.2687L85.9288 18.2657ZM78.3569 19.2581H74.7946C74.182 19.2581 73.7899 19.059 73.7899 18.5873C73.7899 18.1156 74.0564 17.7848 74.7946 17.7848H79.3493V18.2534C79.3493 18.866 79.0798 19.2581 78.3447 19.2581" fill="#161616"/>
<path d="M98.9648 16.1338V18.0114C98.9648 20.7682 100.705 22.2997 104.524 22.2997H116.58V19.1417H106.868C105.866 19.1417 105.529 18.8078 105.529 18.0696V18.0022H113.098C115.775 18.0022 117.386 17.0649 117.386 15.0525V14.6512C117.386 12.844 116.381 11.5024 111.759 11.5024H104.996C100.775 11.5024 98.9679 12.9758 98.9679 16.1246L98.9648 16.1338ZM106.537 14.6512H110.154C110.767 14.6512 111.159 14.8534 111.159 15.3221C111.159 15.7907 110.96 16.0572 110.154 16.0572H105.529V15.6559C105.529 15.0433 105.799 14.6512 106.534 14.6512" fill="#161616"/>
<path d="M98.0535 11.6985H89.5474C88.2058 11.6985 87.3359 12.4367 87.3359 13.6404V22.2844H93.9V14.9698H98.0535V11.6985Z" fill="#161616"/>
<path d="M61.5436 9.75659H54.9121V22.2201H66.5701V19.0039H61.5436V9.75659Z" fill="#161616"/>
<path d="M53.3736 14.9698H44.7328C43.7955 14.9698 43.0603 15.5058 43.0603 16.9148C43.0603 18.5229 43.9302 18.9916 44.8002 18.9916H53.441V22.2078H42.8582C38.3708 22.2078 36.4258 20.8661 36.4258 17.3835V16.5779C36.4258 13.6312 38.233 11.677 42.656 11.677H53.3767V14.9698" fill="#161616"/>
<path d="M21.5591 22.2201L28.5245 15.9225V22.2201H35.0917V9.7627H31.272C29.6639 9.7627 28.5153 10.4335 27.4524 11.3708C26.2486 12.4429 21.893 16.1951 21.893 16.1951V9.7627H18.009C15.8006 9.7627 14.7285 10.5652 13.4543 11.5056C12.6518 12.1764 -0.277344 22.2262 -0.277344 22.2262H7.55793L15.2615 15.8612V22.2262H21.5591" fill="#161616"/>
<path d="M118.414 22.2874V11.6985H128.862C134.155 11.6985 135.962 12.7706 135.962 16.5228V22.2874H129.398V17.5949C129.398 16.3206 128.73 15.1812 126.785 15.1812H124.978V22.2844H118.414" fill="#161616"/>
</g>
<defs>
<clipPath id="clip0_4299_216136">
<rect width="153.82" height="22.253" fill="white" transform="translate(-0.277344 0.169189)"/>
</clipPath>
</defs>
</svg>
