<svg width="153" height="47" viewBox="0 0 153 47" fill="none" xmlns="http://www.w3.org/2000/svg">
<g clip-path="url(#clip0_4299_216104)">
<path d="M62.5371 13.7803L56.134 36.5556H54.6372L47.9279 14.0082V32.3868C47.9468 34.1686 48.8464 35.0764 50.6494 35.0764H51.3411V36.5556H42.791V35.0764H43.2522C45.0552 35.0764 45.9737 34.1686 45.9737 32.3868V14.6171C45.9548 12.8352 45.0514 11.9275 43.2522 11.9275H42.791V10.4482H51.3033L56.3646 28.6775L61.4825 10.4482H69.957V11.9649H69.4959C67.6929 12.0022 66.7933 12.8726 66.7744 14.6544V32.3905C66.7933 34.1724 67.6929 35.0801 69.4959 35.0801H69.957V36.5594H59.5094V35.0801H59.8156C61.6186 35.0801 62.5371 34.1724 62.5371 32.3905V13.7803Z" fill="#E20074"/>
<path d="M86.971 27.5194C86.971 32.6744 84.0945 37.1084 78.6892 37.1084C73.284 37.1084 70.4453 32.6744 70.4453 27.5194C70.4453 22.3645 73.284 17.9304 78.6892 17.9304C84.0945 17.9304 86.971 22.3645 86.971 27.5194ZM74.8942 27.5194C74.8942 32.8238 76.1227 35.5134 78.6892 35.5134C81.2558 35.5134 82.522 32.8238 82.522 27.5194C82.522 22.215 81.2558 19.5255 78.6892 19.5255C76.1227 19.5255 74.8942 22.215 74.8942 27.5194Z" fill="#E20074"/>
<path d="M90.0749 13.8214C90.056 12.4579 89.5381 11.9275 88.1585 11.9275H87.6406V10.4482H94.0059V19.8878C95.0605 18.5617 96.478 17.8968 98.2999 17.8968C103.168 17.8968 105.701 21.9909 105.701 27.4447C105.701 32.8986 103.168 36.9553 98.2999 36.9553C96.1718 36.9889 94.1307 36.1111 92.7019 34.5497L91.3789 36.5594H89.6326C89.9199 35.2333 90.0711 33.881 90.0749 32.525V13.8214ZM93.6809 27.4447C93.6809 29.9064 94.1798 35.2146 97.6309 35.2146C100.889 35.2146 101.275 29.9475 101.275 27.4447C101.275 24.942 101.006 19.6749 97.748 19.6749C94.297 19.6749 93.6847 24.9793 93.6847 27.4447H93.6809Z" fill="#E20074"/>
<path d="M113.906 33.1824C113.925 34.5459 114.442 35.0763 115.822 35.0763H116.415V36.5556H107.461V35.0763H108.054C109.434 35.0763 109.971 34.5459 109.971 33.1824V21.8526C109.952 20.4892 109.434 19.9587 108.054 19.9587H107.654V18.4795H113.906V33.1824Z" fill="#E20074"/>
<path d="M114.098 12.5326C114.135 13.8326 113.104 14.9196 111.784 14.9569C111.743 14.9569 111.701 14.9569 111.66 14.9569C110.303 14.9682 109.199 13.8886 109.188 12.5513C109.176 11.2102 110.269 10.1195 111.622 10.1083C111.641 10.1083 111.66 10.1083 111.679 10.1083C113.013 10.1083 114.094 11.1729 114.094 12.4915C114.094 12.5065 114.094 12.5177 114.094 12.5326H114.098Z" fill="#E20074"/>
<path d="M124.432 33.1825C124.451 34.5459 124.968 35.0764 126.348 35.0764H126.942V36.5556H118.066V35.0764H118.584C119.964 35.0764 120.501 34.5459 120.501 33.1825V13.8214C120.482 12.4579 119.964 11.9275 118.584 11.9275H118.221V10.4482H124.432V33.1862V33.1825Z" fill="#E20074"/>
<path d="M132.677 27.5942C132.81 30.605 132.946 35.2856 136.896 35.2856C139.485 35.2856 140.789 33.1825 141.708 31.1168L143.28 31.9311C141.783 34.9233 139.942 37.1048 136.283 37.1048C130.685 37.1048 128.402 32.3682 128.402 27.5158C128.402 22.6634 130.704 17.9268 135.936 17.9268C141.571 17.9268 143.318 23.2685 143.431 27.5905H132.674L132.677 27.5942ZM139.156 25.9282C139.081 21.5689 138.007 19.5255 136.011 19.5255C134.015 19.5255 132.847 21.7407 132.715 25.9282H139.156Z" fill="#E20074"/>
<path d="M15.8526 27.6763H10.5684V22.4541H15.8526V27.6763ZM10.5684 10.4445V19.3237H12.1521V19.0622C12.1521 14.886 14.5297 12.2749 19.0202 12.2749H19.2848V31.0756C19.2848 33.6867 18.2264 34.7326 15.5843 34.7326H14.7905V36.5593H28.5304V34.7326H27.7366C25.0944 34.7326 24.0361 33.6867 24.0361 31.0756V12.2711H24.3007C28.7912 12.2711 31.1687 14.8822 31.1687 19.0585V19.32H32.7525V10.4445H10.5684ZM27.4796 27.6763H32.7638V22.4541H27.4796V27.6763Z" fill="#E20074"/>
</g>
<defs>
<clipPath id="clip0_4299_216104">
<rect width="154" height="47" fill="white"/>
</clipPath>
</defs>
</svg>
