<svg width="122" height="18" viewBox="0 0 122 18" fill="none" xmlns="http://www.w3.org/2000/svg">
<path fill-rule="evenodd" clip-rule="evenodd" d="M15.3734 9.00001C15.3734 12.7213 12.4266 15.7392 8.79082 15.7392C5.15506 15.7392 2.20821 12.7223 2.20821 9.00001C2.20821 5.27772 5.15601 2.26174 8.79082 2.26174C12.4256 2.26174 15.3734 5.2787 15.3734 9.00001ZM17.5817 9.00001C17.5817 13.9706 13.6459 18 8.79082 18C3.93581 18 0 13.9706 0 9.00001C0 4.02946 3.93581 0 8.79082 0C13.6459 0 17.5817 4.02946 17.5817 9.00001ZM19.7908 4.52349C21.011 4.52349 22 3.51098 22 2.26174C22 1.0125 21.011 0 19.7908 0C18.5707 0 17.5817 1.0125 17.5817 2.26174C17.5817 3.51098 18.5707 4.52349 19.7908 4.52349Z" fill="url(#paint0_linear_2545_448)"/>
<path d="M121.988 14.2475V15.8094C121.518 15.9364 121.067 15.9999 120.635 15.9999C119.721 15.9999 119.035 15.7142 118.578 15.1428C118.184 14.6729 117.988 14.0443 117.988 13.257V7.37132H116.521V5.80942H117.988L118.102 3.42847H119.816V5.80942H121.95V7.37132H119.816V13.2951C119.816 14.0316 120.165 14.3999 120.864 14.3999C121.194 14.3999 121.569 14.3491 121.988 14.2475Z" fill="#181818"/>
<path d="M109.352 15.7143H107.523V5.80952H109.028L109.237 7.06666C109.974 6.03809 110.977 5.5238 112.247 5.5238C113.415 5.5238 114.31 5.88571 114.932 6.60952C115.479 7.25714 115.752 8.13968 115.752 9.25714V15.7143H113.923V9.27618C113.923 7.81587 113.218 7.08571 111.809 7.08571C111.072 7.08571 110.469 7.33968 109.999 7.84761C109.567 8.30476 109.352 8.88888 109.352 9.59999V15.7143Z" fill="#181818"/>
<path d="M99.3744 8.57142H97.4316C97.5332 7.58095 98.003 6.81269 98.8411 6.26666C99.5903 5.77142 100.536 5.5238 101.679 5.5238C103.038 5.5238 104.079 5.87936 104.803 6.59047C105.413 7.19999 105.717 7.9873 105.717 8.95237V15.7143H104.213L103.984 14.3619C103.209 15.454 102.105 16 100.67 16C99.5395 16 98.657 15.6952 98.022 15.0857C97.5014 14.5778 97.2411 13.9365 97.2411 13.1619C97.2411 12.1841 97.5776 11.4286 98.2506 10.8952C98.8474 10.4254 99.7617 10.0825 100.993 9.86666L103.889 9.37142V8.87618C103.889 8.22856 103.666 7.73968 103.222 7.40952C102.828 7.11745 102.289 6.97142 101.603 6.97142C100.257 6.97142 99.5141 7.50476 99.3744 8.57142ZM101.108 14.4571C101.882 14.4571 102.555 14.2032 103.127 13.6952C103.635 13.2254 103.889 12.6857 103.889 12.0762V10.8L101.432 11.2381C100.53 11.3905 99.9141 11.6254 99.5839 11.9429C99.3173 12.1968 99.1839 12.5397 99.1839 12.9714C99.1839 13.454 99.349 13.8222 99.6792 14.0762C100.009 14.3302 100.486 14.4571 101.108 14.4571Z" fill="#181818"/>
<path d="M96.8551 14.2475V15.8094C96.3853 15.9364 95.9345 15.9999 95.5027 15.9999C94.5884 15.9999 93.9027 15.7142 93.4456 15.1428C93.0519 14.6729 92.8551 14.0443 92.8551 13.257V7.37132H91.3884V5.80942H92.8551L92.9694 3.42847H94.6837V5.80942H96.817V7.37132H94.6837V13.2951C94.6837 14.0316 95.0329 14.3999 95.7313 14.3999C96.0614 14.3999 96.436 14.3491 96.8551 14.2475Z" fill="#181818"/>
<path d="M89.2599 13.0286C89.2599 12.4698 88.9678 12.0508 88.3837 11.7714C88.0409 11.619 87.3742 11.4286 86.3837 11.2C85.1647 10.9333 84.2948 10.546 83.7742 10.0381C83.3424 9.60634 83.1266 9.04126 83.1266 8.34285C83.1266 7.41587 83.5012 6.70476 84.2504 6.20952C84.9234 5.75238 85.8313 5.5238 86.9742 5.5238C88.1551 5.5238 89.1139 5.81587 89.8504 6.39999C90.4853 6.90793 90.8789 7.58095 91.0313 8.41904H89.1647C88.9488 7.45396 88.2123 6.97142 86.9551 6.97142C86.2567 6.97142 85.7361 7.09841 85.3932 7.35238C85.1139 7.56825 84.9742 7.84126 84.9742 8.17142C84.9742 8.57777 85.1266 8.88253 85.4313 9.08571C85.7488 9.28888 86.3647 9.49206 87.2789 9.69523C88.6758 9.99999 89.6472 10.3746 90.1932 10.819C90.8028 11.3143 91.1075 12.0063 91.1075 12.8952C91.1075 13.8857 90.7012 14.6667 89.8885 15.2381C89.152 15.746 88.1805 16 86.9742 16C85.6536 16 84.6059 15.6825 83.8313 15.0476C83.1583 14.4889 82.7837 13.7651 82.7075 12.8762H84.5742C84.7774 13.9936 85.5837 14.5524 86.9932 14.5524C87.7551 14.5524 88.3456 14.3873 88.7647 14.0571C89.0948 13.7905 89.2599 13.4476 89.2599 13.0286Z" fill="#181818"/>
<path d="M81.6729 4.15238H79.6157V2H81.6729V4.15238ZM81.5586 15.7143H79.73V5.80952H81.5586V15.7143Z" fill="#181818"/>
<path d="M76.5537 13.0286C76.5537 12.4698 76.2617 12.0508 75.6775 11.7714C75.3347 11.619 74.668 11.4286 73.6775 11.2C72.4585 10.9333 71.5886 10.546 71.068 10.0381C70.6363 9.60634 70.4204 9.04126 70.4204 8.34285C70.4204 7.41587 70.795 6.70476 71.5442 6.20952C72.2172 5.75238 73.1252 5.5238 74.268 5.5238C75.449 5.5238 76.4077 5.81587 77.1442 6.39999C77.7791 6.90793 78.1728 7.58095 78.3252 8.41904H76.4585C76.2426 7.45396 75.5061 6.97142 74.249 6.97142C73.5506 6.97142 73.0299 7.09841 72.6871 7.35238C72.4077 7.56825 72.268 7.84126 72.268 8.17142C72.268 8.57777 72.4204 8.88253 72.7252 9.08571C73.0426 9.28888 73.6585 9.49206 74.5728 9.69523C75.9696 9.99999 76.941 10.3746 77.4871 10.819C78.0966 11.3143 78.4013 12.0063 78.4013 12.8952C78.4013 13.8857 77.995 14.6667 77.1823 15.2381C76.4458 15.746 75.4744 16 74.268 16C72.9474 16 71.8998 15.6825 71.1252 15.0476C70.4521 14.4889 70.0775 13.7651 70.0013 12.8762H71.868C72.0712 13.9936 72.8775 14.5524 74.2871 14.5524C75.049 14.5524 75.6394 14.3873 76.0585 14.0571C76.3886 13.7905 76.5537 13.4476 76.5537 13.0286Z" fill="#181818"/>
<path d="M67.7177 13.0286C67.7177 12.4698 67.4256 12.0508 66.8415 11.7714C66.4986 11.619 65.8319 11.4286 64.8415 11.2C63.6224 10.9333 62.7526 10.546 62.2319 10.0381C61.8002 9.60634 61.5843 9.04126 61.5843 8.34285C61.5843 7.41587 61.9589 6.70476 62.7081 6.20952C63.3812 5.75238 64.2891 5.5238 65.4319 5.5238C66.6129 5.5238 67.5716 5.81587 68.3081 6.39999C68.9431 6.90793 69.3367 7.58095 69.4891 8.41904H67.6224C67.4066 7.45396 66.67 6.97142 65.4129 6.97142C64.7145 6.97142 64.1939 7.09841 63.851 7.35238C63.5716 7.56825 63.4319 7.84126 63.4319 8.17142C63.4319 8.57777 63.5843 8.88253 63.8891 9.08571C64.2066 9.28888 64.8224 9.49206 65.7367 9.69523C67.1335 9.99999 68.105 10.3746 68.651 10.819C69.2605 11.3143 69.5653 12.0063 69.5653 12.8952C69.5653 13.8857 69.1589 14.6667 68.3462 15.2381C67.6097 15.746 66.6383 16 65.4319 16C64.1113 16 63.0637 15.6825 62.2891 15.0476C61.6161 14.4889 61.2415 13.7651 61.1653 12.8762H63.0319C63.2351 13.9936 64.0415 14.5524 65.451 14.5524C66.2129 14.5524 66.8034 14.3873 67.2224 14.0571C67.5526 13.7905 67.7177 13.4476 67.7177 13.0286Z" fill="#181818"/>
<path d="M61.3546 15.7143H59.2022L57.8498 12.2476H51.3165L49.9451 15.7143H47.907L53.5451 2H55.7356L61.3546 15.7143ZM54.6117 3.94286L51.9451 10.6667H57.2213L54.6117 3.94286Z" fill="#181818"/>
<path d="M40.3496 2H42.2925V15.7143H40.3496V2Z" fill="#181818"/>
<path d="M39.682 15.7143H37.5296L36.1772 12.2476H29.6439L28.2725 15.7143H26.2344L31.8725 2H34.0629L39.682 15.7143ZM32.9391 3.94286L30.2725 10.6667H35.5487L32.9391 3.94286Z" fill="#181818"/>
<defs>
<linearGradient id="paint0_linear_2545_448" x1="20.3983" y1="-0.533105" x2="1.77966" y2="14.0565" gradientUnits="userSpaceOnUse">
<stop stop-color="#3CC29A"/>
<stop offset="1" stop-color="#0672EF"/>
</linearGradient>
</defs>
</svg>
