<?xml version="1.0" encoding="utf-8"?>
<!-- Generator: Adobe Illustrator 25.4.4, SVG Export Plug-In . SVG Version: 6.00 Build 0)  -->
<svg version="1.1" id="Layer_1" xmlns="http://www.w3.org/2000/svg" xmlns:xlink="http://www.w3.org/1999/xlink" x="0px" y="0px"
	 width="100px" height="100px" viewBox="0 0 100 100" style="enable-background:new 0 0 100 100;" xml:space="preserve">
<style type="text/css">
	.st0{fill:#FFD02F;}
	.st1{fill-rule:evenodd;clip-rule:evenodd;fill:#050038;}
</style>
<path class="st0" d="M74.4,14H25.6C19.2,14,14,19.2,14,25.6v48.8C14,80.8,19.2,86,25.6,86h48.8C80.8,86,86,80.8,86,74.4V25.6
	C86,19.2,80.8,14,74.4,14z"/>
<path class="st1" d="M62.8,25.6h-7l5.8,10.5L48.8,25.6h-7l6.4,12.8L34.9,25.6h-7l7,16.3l-7,32.5h7l13.4-34.8l-6.4,34.8h7l12.8-37.2
	l-5.8,37.2h7l12.8-40.6L62.8,25.6z"/>
</svg>
