<?xml version="1.0" encoding="utf-8"?>
<!-- Generator: Adobe Illustrator 25.4.4, SVG Export Plug-In . SVG Version: 6.00 Build 0)  -->
<svg version="1.1" id="Layer_1" xmlns="http://www.w3.org/2000/svg" xmlns:xlink="http://www.w3.org/1999/xlink" x="0px" y="0px"
	 width="100px" height="100px" viewBox="0 0 100 100" style="enable-background:new 0 0 100 100;" xml:space="preserve">
<style type="text/css">
	.st0{fill:#2684FF;}
	.st1{fill:url(#SVGID_1_);}
	.st2{fill:url(#SVGID_00000124872025737479986850000006019748455493942923_);}
</style>
<path class="st0" d="M88.3,47.7L52.9,12.4L49.5,9L23,35.5L10.9,47.6c-1.2,1.2-1.2,3.3,0,4.6l24.2,24.2L49.5,91L76,64.5l0.5-0.5
	l11.8-11.8C89.5,51,89.5,49,88.3,47.7z M49.5,62.1L37.4,50l12.1-12.1L61.6,50L49.5,62.1z"/>
<linearGradient id="SVGID_1_" gradientUnits="userSpaceOnUse" x1="47.3599" y1="74.2875" x2="30.4351" y2="57.3628" gradientTransform="matrix(1 0 0 -1 0 99.8898)">
	<stop  offset="0.176" style="stop-color:#0052CC"/>
	<stop  offset="1" style="stop-color:#2684FF"/>
</linearGradient>
<path class="st1" d="M49.5,37.9C41.6,30,41.6,17,49.4,9.1L22.9,35.6L37.3,50L49.5,37.9z"/>
<linearGradient id="SVGID_00000008147656312524308530000011846154550077700017_" gradientUnits="userSpaceOnUse" x1="51.8501" y1="25.6584" x2="68.7411" y2="42.549" gradientTransform="matrix(1 0 0 -1 0 99.8898)">
	<stop  offset="0.176" style="stop-color:#0052CC"/>
	<stop  offset="1" style="stop-color:#2684FF"/>
</linearGradient>
<path style="fill:url(#SVGID_00000008147656312524308530000011846154550077700017_);" d="M61.6,50L49.5,62.1
	c7.9,7.9,7.9,20.8,0,28.9l26.6-26.6L61.6,50z"/>
</svg>
