<?xml version="1.0" encoding="utf-8"?>
<!-- Generator: Adobe Illustrator 25.4.4, SVG Export Plug-In . SVG Version: 6.00 Build 0)  -->
<svg version="1.1" id="Layer_1" xmlns="http://www.w3.org/2000/svg" xmlns:xlink="http://www.w3.org/1999/xlink" x="0px" y="0px"
	 width="100px" height="100px" viewBox="0 0 100 100" style="enable-background:new 0 0 100 100;" xml:space="preserve">
<style type="text/css">
	.st0{fill:#39AC37;}
	.st1{fill:#FFFFFF;}
</style>
<circle class="st0" cx="50.5" cy="50.5" r="35.5"/>
<path class="st1" d="M42.7,43.7c0-2.3,2.8-4.1,7.4-4.1c4.8,0,7.7,2.9,7.7,5.8H66c0-7.5-6.6-12.7-15.9-12.7c-9.2,0-15.7,5-15.7,11
	c0,13.6,23.7,8.1,23.7,13.6c0,2.2-3,4-7.4,4c-4.8,0-8.3-2.4-8.3-5.3h-8.2c0,7.5,7.2,12.2,16.5,12.2c9.2,0,16-4.7,16-10.9
	C66.8,44.2,42.7,49.6,42.7,43.7z"/>
</svg>
