<?xml version="1.0" encoding="utf-8"?>
<!-- Generator: Adobe Illustrator 25.4.4, SVG Export Plug-In . SVG Version: 6.00 Build 0)  -->
<svg version="1.1" id="Layer_1" xmlns="http://www.w3.org/2000/svg" xmlns:xlink="http://www.w3.org/1999/xlink" x="0px" y="0px"
	 width="100px" height="100px" viewBox="0 0 100 100" style="enable-background:new 0 0 100 100;" xml:space="preserve">
<style type="text/css">
	.st0{clip-path:url(#SVGID_00000119816525886028648290000008074284434854205070_);}
	.st1{fill:#FFFFFF;filter:url(#Adobe_OpacityMaskFilter);}
	.st2{mask:url(#mask0_4875_229818_00000133503166625471388100000010162929960968535469_);}
	.st3{fill-rule:evenodd;clip-rule:evenodd;fill:#00A1E0;}
	.st4{fill-rule:evenodd;clip-rule:evenodd;fill:#FFFFFE;}
</style>
<g>
	<defs>
		<rect id="SVGID_1_" x="1.3" y="15.8" width="97.7" height="68.4"/>
	</defs>
	<clipPath id="SVGID_00000163066812611950730280000010338001365278294696_">
		<use xlink:href="#SVGID_1_"  style="overflow:visible;"/>
	</clipPath>
	<g style="clip-path:url(#SVGID_00000163066812611950730280000010338001365278294696_);">
		<defs>
			<filter id="Adobe_OpacityMaskFilter" filterUnits="userSpaceOnUse" x="1.2" y="16" width="97.4" height="68.2">
				<feColorMatrix  type="matrix" values="1 0 0 0 0  0 1 0 0 0  0 0 1 0 0  0 0 0 1 0"/>
			</filter>
		</defs>
		
			<mask maskUnits="userSpaceOnUse" x="1.2" y="16" width="97.4" height="68.2" id="mask0_4875_229818_00000133503166625471388100000010162929960968535469_">
			<path class="st1" d="M1.3,16h97.3v68H1.3V16z"/>
		</mask>
		<g class="st2">
			<path class="st3" d="M41.7,23.4c3.1-3.3,7.5-5.3,12.3-5.3c6.4,0,12,3.6,15,8.9c2.7-1.2,5.6-1.8,8.5-1.8c11.6,0,21,9.5,21,21.2
				s-9.4,21.2-21,21.2c-1.4,0-2.8-0.1-4.2-0.4c-2.6,4.7-7.7,7.9-13.4,7.9c-2.3,0-4.6-0.5-6.7-1.5c-2.7,6.3-8.9,10.7-16.1,10.7
				c-7.6,0-14-4.8-16.4-11.5c-1.1,0.2-2.2,0.3-3.3,0.3c-9,0-16.2-7.4-16.2-16.4c0-6.1,3.3-11.4,8.1-14.2c-1-2.4-1.6-4.9-1.6-7.5
				C7.8,24.4,16.3,16,26.7,16C32.8,16,38.3,18.9,41.7,23.4"/>
			<path class="st4" d="M15.4,51.3c-0.1,0.2,0,0.2,0,0.2c0.2,0.1,0.4,0.2,0.6,0.3c1,0.5,1.9,0.7,2.9,0.7c2,0,3.2-1.1,3.2-2.8v0
				c0-1.6-1.4-2.2-2.7-2.6l-0.2-0.1c-1-0.3-1.8-0.6-1.8-1.3v0c0-0.6,0.5-1,1.3-1c0.9,0,1.9,0.3,2.5,0.6c0,0,0.2,0.1,0.3-0.1
				c0-0.1,0.4-1,0.4-1.1c0-0.1,0-0.2-0.1-0.2c-0.8-0.5-1.8-0.8-2.9-0.8l-0.2,0c-1.8,0-3.1,1.1-3.1,2.7v0c0,1.7,1.4,2.2,2.7,2.6
				l0.2,0.1c1,0.3,1.8,0.6,1.8,1.2v0c0,0.6-0.5,1.1-1.4,1.1c-0.3,0-1.4,0-2.6-0.7c-0.1-0.1-0.2-0.1-0.3-0.2c-0.1,0-0.2-0.1-0.3,0.1
				L15.4,51.3L15.4,51.3z M44.6,51.3c-0.1,0.2,0,0.2,0,0.2c0.2,0.1,0.4,0.2,0.6,0.3c1,0.5,1.9,0.7,2.9,0.7c2,0,3.2-1.1,3.2-2.8v0
				c0-1.6-1.4-2.2-2.7-2.6l-0.2-0.1c-1-0.3-1.8-0.6-1.8-1.3v0c0-0.6,0.5-1,1.3-1c0.9,0,1.9,0.3,2.5,0.6c0,0,0.2,0.1,0.3-0.1
				c0-0.1,0.4-1,0.4-1.1c0-0.1,0-0.2-0.1-0.2c-0.8-0.5-1.8-0.8-2.9-0.8l-0.2,0c-1.8,0-3.1,1.1-3.1,2.7v0c0,1.7,1.4,2.2,2.7,2.6
				l0.2,0.1c1,0.3,1.8,0.6,1.8,1.2v0c0,0.6-0.5,1.1-1.4,1.1c-0.3,0-1.4,0-2.6-0.7c-0.1-0.1-0.2-0.1-0.3-0.2c0,0-0.2-0.1-0.3,0.1
				L44.6,51.3L44.6,51.3z M64.6,48c0,1-0.2,1.7-0.5,2.3c-0.4,0.5-0.9,0.8-1.6,0.8c-0.7,0-1.3-0.3-1.6-0.8c-0.3-0.5-0.5-1.3-0.5-2.3
				c0-1,0.2-1.7,0.5-2.3c0.3-0.5,0.9-0.8,1.6-0.8s1.3,0.3,1.6,0.8C64.4,46.3,64.6,47,64.6,48L64.6,48z M66.3,46.2
				c-0.2-0.6-0.4-1-0.8-1.4c-0.3-0.4-0.8-0.7-1.3-1c-0.5-0.2-1.1-0.4-1.8-0.4s-1.3,0.1-1.8,0.4c-0.5,0.2-0.9,0.6-1.3,1
				c-0.3,0.4-0.6,0.9-0.8,1.4c-0.2,0.6-0.2,1.2-0.2,1.8c0,0.6,0.1,1.2,0.2,1.8c0.2,0.6,0.4,1,0.8,1.4c0.3,0.4,0.8,0.7,1.3,1
				c0.5,0.2,1.1,0.4,1.8,0.4c0.7,0,1.3-0.1,1.8-0.4c0.5-0.2,0.9-0.6,1.3-1c0.3-0.4,0.6-0.9,0.8-1.4c0.2-0.6,0.2-1.2,0.2-1.8
				C66.5,47.4,66.4,46.8,66.3,46.2L66.3,46.2z M80,50.8c-0.1-0.2-0.2-0.1-0.2-0.1c-0.2,0.1-0.5,0.2-0.8,0.2c-0.3,0-0.6,0.1-0.9,0.1
				c-0.8,0-1.4-0.2-1.9-0.7c-0.5-0.5-0.7-1.2-0.7-2.3c0-0.9,0.2-1.7,0.6-2.2c0.4-0.5,1-0.8,1.9-0.8c0.7,0,1.2,0.1,1.8,0.3
				c0,0,0.1,0.1,0.2-0.1c0.1-0.4,0.3-0.7,0.4-1.1c0-0.1-0.1-0.2-0.1-0.2c-0.2-0.1-0.7-0.2-1.1-0.3c-0.4-0.1-0.8-0.1-1.3-0.1
				c-0.7,0-1.3,0.1-1.9,0.4c-0.5,0.2-1,0.6-1.3,1c-0.4,0.4-0.6,0.9-0.8,1.4c-0.2,0.6-0.3,1.2-0.3,1.8c0,1.4,0.4,2.5,1.1,3.3
				c0.7,0.8,1.8,1.2,3.3,1.2c0.9,0,1.7-0.2,2.4-0.4c0,0,0.1-0.1,0.1-0.2L80,50.8L80,50.8z M82.9,47.1c0.1-0.5,0.2-1,0.5-1.3
				c0.3-0.5,0.9-0.8,1.6-0.8c0.7,0,1.2,0.3,1.6,0.8c0.2,0.3,0.3,0.8,0.4,1.3H82.9L82.9,47.1z M88.5,45.9c-0.1-0.5-0.5-1.1-0.7-1.3
				c-0.4-0.4-0.7-0.7-1.1-0.8c-0.5-0.2-1.1-0.3-1.6-0.3c-0.7,0-1.3,0.1-1.9,0.4c-0.5,0.2-1,0.6-1.3,1c-0.3,0.4-0.6,0.9-0.8,1.5
				c-0.2,0.6-0.2,1.2-0.2,1.8c0,0.7,0.1,1.3,0.3,1.8c0.2,0.6,0.4,1,0.8,1.4c0.4,0.4,0.8,0.7,1.4,0.9c0.6,0.2,1.3,0.3,2.1,0.3
				c1.6,0,2.5-0.4,2.8-0.6c0.1,0,0.1-0.1,0-0.3l-0.4-1c-0.1-0.2-0.2-0.1-0.2-0.1c-0.4,0.2-1,0.4-2.3,0.4c-0.9,0-1.5-0.3-1.9-0.7
				c-0.4-0.4-0.6-1-0.7-1.9l5.7,0c0,0,0.1,0,0.2-0.1C88.7,48.2,88.9,47.1,88.5,45.9L88.5,45.9z M37.7,47.1c0.1-0.5,0.2-1,0.5-1.3
				c0.3-0.5,0.9-0.8,1.6-0.8c0.7,0,1.2,0.3,1.6,0.8c0.2,0.3,0.3,0.8,0.4,1.3H37.7L37.7,47.1z M43.3,45.9c-0.1-0.5-0.5-1.1-0.7-1.3
				c-0.4-0.4-0.7-0.7-1.1-0.8c-0.5-0.2-1.1-0.3-1.6-0.3c-0.7,0-1.3,0.1-1.9,0.4c-0.5,0.2-1,0.6-1.3,1c-0.3,0.4-0.6,0.9-0.8,1.5
				c-0.2,0.6-0.2,1.2-0.2,1.8c0,0.7,0.1,1.3,0.3,1.8c0.2,0.6,0.4,1,0.8,1.4c0.4,0.4,0.8,0.7,1.4,0.9c0.6,0.2,1.3,0.3,2.1,0.3
				c1.6,0,2.5-0.4,2.8-0.6c0.1,0,0.1-0.1,0-0.3l-0.4-1c-0.1-0.2-0.2-0.1-0.2-0.1c-0.4,0.2-1,0.4-2.3,0.4c-0.9,0-1.5-0.3-1.9-0.7
				c-0.4-0.4-0.6-1-0.7-1.9l5.7,0c0,0,0.1,0,0.2-0.1C43.5,48.2,43.7,47.1,43.3,45.9L43.3,45.9z M25.5,50.7c-0.2-0.2-0.3-0.2-0.3-0.3
				C25,50.2,25,50,25,49.7c0-0.5,0.2-0.9,0.5-1.1c0,0,0.5-0.4,1.6-0.4c0.5,0,1,0.1,1.5,0.1v2.6h0c0,0-0.7,0.2-1.5,0.2
				C26,51.1,25.5,50.7,25.5,50.7L25.5,50.7z M27.7,46.8c-0.2,0-0.5,0-0.9,0c-0.5,0-1,0.1-1.4,0.2c-0.4,0.1-0.8,0.3-1.2,0.5
				c-0.3,0.2-0.6,0.6-0.8,0.9c-0.2,0.4-0.3,0.8-0.3,1.3c0,0.5,0.1,0.9,0.3,1.3c0.2,0.4,0.4,0.7,0.7,0.9c0.3,0.2,0.7,0.4,1.1,0.5
				c0.4,0.1,0.9,0.2,1.5,0.2c0.6,0,1.2,0,1.7-0.1c0.5-0.1,0.9-0.2,1.4-0.3c0.2,0,0.4-0.1,0.4-0.1c0.1,0,0.1-0.2,0.1-0.2l0-5.2
				c0-1.1-0.3-2-0.9-2.5c-0.6-0.5-1.5-0.8-2.6-0.8c-0.4,0-1.1,0.1-1.5,0.1c0,0-1.2,0.2-1.7,0.6c0,0-0.1,0.1-0.1,0.2l0.4,1.1
				c0,0.1,0.2,0.1,0.2,0.1s0,0,0.1,0c1.1-0.6,2.5-0.6,2.5-0.6c0.6,0,1.1,0.1,1.4,0.4c0.3,0.2,0.5,0.6,0.5,1.3v0.2
				C28.2,46.8,27.7,46.8,27.7,46.8L27.7,46.8z M73.2,43.9C73.2,43.8,73.2,43.8,73.2,43.9c0-0.1,0-0.1,0-0.1c0,0,0,0,0-0.1
				c0,0,0,0-0.1,0c-0.1,0-0.6-0.1-0.9-0.2c-0.7,0-1.1,0.1-1.5,0.2c-0.3,0.2-0.7,0.4-1,0.7l0-0.7c0-0.1-0.1-0.2-0.2-0.2h-1.4
				c-0.1,0-0.2,0.1-0.2,0.2v8.4c0,0,0,0.1,0.1,0.1c0,0,0.1,0.1,0.1,0.1h1.5c0,0,0.1,0,0.1-0.1c0,0,0.1-0.1,0.1-0.1v-4.2
				c0-0.6,0.1-1.1,0.2-1.5c0.1-0.4,0.3-0.6,0.5-0.8c0.2-0.2,0.4-0.3,0.7-0.4c0.2-0.1,0.5-0.1,0.8-0.1c0.3,0,0.6,0.1,0.6,0.1
				c0.1,0,0.2-0.1,0.2-0.2C72.9,44.8,73.1,44,73.2,43.9"/>
			<path class="st4" d="M59.3,40c-0.2-0.1-0.4-0.1-0.6-0.1c-0.3,0-0.5-0.1-0.8-0.1c-1,0-1.8,0.3-2.4,0.9c-0.6,0.6-0.9,1.4-1.1,2.6
				l-0.1,0.4h-1.3c0,0-0.2,0-0.2,0.2l-0.2,1.2c0,0.1,0,0.2,0.2,0.2h1.2l-1.3,7.1c-0.1,0.6-0.2,1-0.3,1.4c-0.1,0.3-0.2,0.6-0.4,0.8
				c-0.1,0.2-0.3,0.3-0.5,0.4c-0.2,0.1-0.4,0.1-0.7,0.1c-0.1,0-0.3,0-0.5,0c-0.1,0-0.2-0.1-0.3-0.1c0,0-0.1-0.1-0.2,0.1
				c0,0.1-0.4,1-0.4,1.1c0,0.1,0,0.2,0.1,0.2c0.2,0.1,0.3,0.1,0.5,0.2c0.3,0.1,0.6,0.1,0.8,0.1c0.5,0,1-0.1,1.4-0.2
				c0.4-0.1,0.7-0.4,1-0.7c0.3-0.4,0.5-0.7,0.7-1.3c0.2-0.5,0.4-1.2,0.5-1.9l1.3-7.2h1.9c0,0,0.2,0,0.2-0.2l0.2-1.2
				c0-0.1,0-0.2-0.2-0.2h-1.8c0,0,0.1-0.7,0.3-1.3c0.1-0.3,0.3-0.5,0.4-0.6c0.1-0.1,0.3-0.2,0.5-0.3c0.2-0.1,0.4-0.1,0.6-0.1
				c0.2,0,0.3,0,0.5,0c0.2,0,0.2,0.1,0.3,0.1c0.2,0.1,0.2,0,0.2-0.1l0.4-1.2C59.5,40.1,59.4,40,59.3,40L59.3,40z M34.1,52.2
				c0,0.1-0.1,0.2-0.2,0.2h-1.5c-0.1,0-0.2-0.1-0.2-0.2v-12c0-0.1,0.1-0.2,0.2-0.2H34c0.1,0,0.2,0.1,0.2,0.2V52.2"/>
		</g>
	</g>
</g>
</svg>
