<svg width="211" height="23" viewBox="0 0 211 23" fill="none" xmlns="http://www.w3.org/2000/svg">
<g clip-path="url(#clip0)">
<path d="M95.77 7.19993C95.47 7.12993 95.2 7.06993 94.96 7.02993C94.7302 7.01612 94.4998 7.01612 94.27 7.02993C94.1302 7.02183 93.9901 7.04153 93.858 7.08787C93.7258 7.13421 93.6041 7.20629 93.5 7.29993C93.4085 7.39738 93.3374 7.5122 93.2911 7.63758C93.2447 7.76297 93.2239 7.89638 93.23 8.02993V9.52993H95.35V10.9999H93.23V19.2999H91.41V10.9999H90V9.47993H91.46V8.09993C91.4369 7.73166 91.4928 7.36271 91.6238 7.01778C91.7549 6.67286 91.9582 6.35992 92.22 6.09993C92.4887 5.85235 92.8038 5.66039 93.1471 5.5351C93.4903 5.40982 93.855 5.35368 94.22 5.36993C94.5081 5.37002 94.7957 5.39343 95.08 5.43993C95.33 5.43993 95.58 5.53993 95.83 5.59993L95.77 7.19993Z" fill="white"/>
<path d="M95.87 14.4099C95.851 13.6229 95.9799 12.8394 96.25 12.0999C96.4797 11.4855 96.8416 10.9291 97.31 10.4699C97.7429 10.0266 98.2689 9.685 98.85 9.46993C99.4575 9.25863 100.097 9.15376 100.74 9.15992C101.386 9.15459 102.029 9.25943 102.64 9.46993C103.222 9.68255 103.749 10.0245 104.18 10.4699C104.625 10.9367 104.965 11.4922 105.18 12.0999C105.445 12.8406 105.574 13.6233 105.56 14.4099C105.572 15.1825 105.446 15.951 105.19 16.6799C104.975 17.2874 104.634 17.8428 104.19 18.3099C103.758 18.7538 103.231 19.0955 102.65 19.3099C102.028 19.5342 101.371 19.6459 100.71 19.6399C100.059 19.6451 99.4118 19.5334 98.8 19.3099C98.2161 19.0947 97.6868 18.7532 97.25 18.3099C96.8022 17.8457 96.461 17.2894 96.25 16.6799C95.9834 15.9534 95.8546 15.1836 95.87 14.4099ZM97.76 14.4099C97.759 14.949 97.8399 15.4851 98 15.9999C98.13 16.428 98.3442 16.8258 98.63 17.1699C98.8823 17.4781 99.2046 17.7215 99.57 17.8799C99.9493 18.0415 100.358 18.1232 100.77 18.1199C101.172 18.1315 101.572 18.0521 101.939 17.8876C102.306 17.7231 102.631 17.4777 102.89 17.1699C103.493 16.3701 103.784 15.3786 103.71 14.3799C103.718 13.828 103.64 13.2781 103.48 12.7499C103.352 12.3233 103.141 11.9258 102.86 11.5799C102.606 11.2739 102.284 11.0309 101.92 10.8699C101.549 10.7192 101.151 10.6444 100.75 10.6499C100.345 10.6439 99.9431 10.7222 99.57 10.8799C99.2065 11.0416 98.8849 11.2845 98.63 11.5899C98.3427 11.9443 98.1286 12.3522 98 12.7899C97.8354 13.314 97.7544 13.8607 97.76 14.4099Z" fill="white"/>
<path d="M107.11 19.3399V9.47989H108.61L108.86 10.9399C109.049 10.4288 109.39 9.98782 109.837 9.67663C110.284 9.36545 110.816 9.19903 111.36 9.19989C111.573 9.18337 111.787 9.18337 112 9.19989L112.44 9.28989V11.1099C112.26 11.0583 112.076 11.0182 111.89 10.9899C111.691 10.9742 111.49 10.9742 111.29 10.9899C110.978 10.9886 110.669 11.0498 110.38 11.1699C110.087 11.3002 109.833 11.5033 109.64 11.7599C109.399 12.0753 109.222 12.4356 109.12 12.8199C108.987 13.3358 108.923 13.8671 108.93 14.3999V19.3499L107.11 19.3399Z" fill="white"/>
<path d="M123 5.6899C123.929 5.67615 124.855 5.81465 125.74 6.0999C126.536 6.34709 127.265 6.77486 127.87 7.3499C128.475 7.94631 128.94 8.67066 129.23 9.4699C129.568 10.4332 129.734 11.4488 129.72 12.4699C129.737 13.4701 129.564 14.4644 129.21 15.3999C128.905 16.2096 128.424 16.9408 127.8 17.5399C127.175 18.1218 126.436 18.5679 125.63 18.8499C124.742 19.1544 123.808 19.3032 122.87 19.2899H118.56V5.6899H123ZM120.5 7.2199V17.7499H123C123.64 17.7895 124.282 17.6923 124.882 17.4647C125.482 17.2371 126.026 16.8844 126.48 16.4299C127.366 15.3279 127.802 13.9306 127.7 12.5199C127.714 11.724 127.603 10.9309 127.37 10.1699C127.176 9.5578 126.852 8.99492 126.42 8.5199C126.009 8.07385 125.498 7.73121 124.93 7.5199C124.289 7.28783 123.611 7.17596 122.93 7.1899L120.5 7.2199Z" fill="white"/>
<path d="M140 16.4998C139.881 16.9439 139.692 17.366 139.44 17.7498C139.183 18.1323 138.866 18.4701 138.5 18.7498C138.107 19.033 137.671 19.2524 137.21 19.3998C136.686 19.5648 136.139 19.6458 135.59 19.6398C134.909 19.6517 134.232 19.5433 133.59 19.3198C133.011 19.1058 132.488 18.764 132.06 18.3198C131.614 17.8538 131.273 17.2981 131.06 16.6898C130.805 15.9537 130.683 15.1784 130.7 14.3998C130.685 13.6311 130.807 12.8659 131.06 12.1398C131.274 11.529 131.615 10.9702 132.06 10.4998C132.474 10.0579 132.984 9.71596 133.55 9.49977C134.774 9.07299 136.106 9.07299 137.33 9.49977C137.893 9.70529 138.395 10.0492 138.79 10.4998C139.241 11.0032 139.582 11.596 139.79 12.2398C140.03 13.0713 140.145 13.9342 140.13 14.7998H132.62C132.615 15.7315 132.974 16.6283 133.62 17.2998C134.181 17.8203 134.924 18.1002 135.69 18.0798C136.241 18.0959 136.783 17.9385 137.24 17.6298C137.605 17.342 137.871 16.9468 138 16.4998H140ZM135.53 10.6598C134.844 10.6394 134.176 10.8787 133.66 11.3298C133.102 11.8587 132.748 12.5666 132.66 13.3298H138.24C138.233 12.5787 137.931 11.8603 137.4 11.3298C136.871 10.8726 136.188 10.6332 135.49 10.6598H135.53Z" fill="white"/>
<path d="M149.54 9.47998L146.07 19.34H143.61L140.17 9.47998H142.17L144.9 17.86L147.65 9.47998H149.54Z" fill="white"/>
<path d="M158.8 16.4999C158.674 16.9429 158.482 17.3643 158.23 17.7499C157.977 18.1349 157.659 18.4732 157.29 18.7499C156.9 19.0371 156.464 19.2568 156 19.3999C155.477 19.5658 154.93 19.6468 154.38 19.6399C153.72 19.6468 153.063 19.5386 152.44 19.3199C151.862 19.106 151.339 18.7641 150.91 18.3199C150.465 17.8536 150.124 17.298 149.91 16.6899C149.656 15.9539 149.534 15.1785 149.55 14.3999C149.536 13.6312 149.658 12.866 149.91 12.1399C150.125 11.5291 150.465 10.9703 150.91 10.4999C151.33 10.0597 151.842 9.71814 152.41 9.49992C153.018 9.27465 153.662 9.1628 154.31 9.16992C154.947 9.16134 155.58 9.26631 156.18 9.47992C156.744 9.68309 157.247 10.0274 157.64 10.4799C158.078 10.9854 158.401 11.5787 158.59 12.2199C158.836 13.0505 158.95 13.9141 158.93 14.7799H151.4C151.405 15.7099 151.762 16.6034 152.4 17.2799C152.968 17.7965 153.713 18.0757 154.48 18.0599C155.028 18.0767 155.568 17.9191 156.02 17.6099C156.423 17.335 156.722 16.9339 156.87 16.4699L158.8 16.4999ZM154.32 10.6599C153.638 10.6411 152.974 10.8803 152.46 11.3299C151.899 11.8563 151.545 12.5655 151.46 13.3299H157.03C157.024 12.5788 156.722 11.8604 156.19 11.3299C155.672 10.8822 155.005 10.6434 154.32 10.6599Z" fill="white"/>
<path d="M162.35 19.3399H160.53V5.68994H162.35V19.3399Z" fill="white"/>
<path d="M163.86 14.4099C163.844 13.6223 163.976 12.8386 164.25 12.0999C164.479 11.4855 164.841 10.9291 165.31 10.4699C165.743 10.0266 166.269 9.685 166.85 9.46993C167.457 9.25863 168.097 9.15376 168.74 9.15992C169.386 9.15459 170.029 9.25943 170.64 9.46993C171.222 9.68255 171.749 10.0245 172.18 10.4699C172.624 10.9367 172.965 11.4922 173.18 12.0999C173.442 12.8413 173.567 13.6239 173.55 14.4099C173.566 15.1829 173.441 15.9523 173.18 16.6799C172.969 17.2894 172.627 17.8457 172.18 18.3099C171.744 18.754 171.214 19.0956 170.63 19.3099C170.011 19.5351 169.358 19.6469 168.7 19.6399C168.045 19.6444 167.395 19.5327 166.78 19.3099C166.199 19.0946 165.673 18.753 165.24 18.3099C164.796 17.8428 164.455 17.2874 164.24 16.6799C163.978 15.9522 163.849 15.1833 163.86 14.4099ZM165.76 14.4099C165.759 14.949 165.84 15.4851 166 15.9999C166.13 16.4257 166.341 16.8228 166.62 17.1699C166.878 17.4764 167.203 17.7193 167.57 17.8799C167.949 18.0415 168.357 18.1232 168.77 18.1199C169.172 18.1315 169.571 18.0521 169.938 17.8876C170.306 17.7231 170.631 17.4777 170.89 17.1699C171.492 16.3701 171.784 15.3786 171.71 14.3799C171.718 13.828 171.64 13.2781 171.48 12.7499C171.352 12.3209 171.138 11.9227 170.85 11.5799C170.601 11.2719 170.282 11.0284 169.92 10.8699C169.548 10.7192 169.15 10.6444 168.75 10.6499C168.345 10.6439 167.943 10.7222 167.57 10.8799C167.205 11.0441 166.881 11.2865 166.62 11.5899C166.343 11.9385 166.133 12.3351 166 12.7599C165.832 13.2936 165.751 13.8506 165.76 14.4099Z" fill="white"/>
<path d="M176.61 9.4801L176.9 10.7701C177.289 10.2609 177.794 9.85244 178.374 9.57922C178.953 9.30601 179.59 9.17599 180.23 9.2001C180.841 9.19099 181.446 9.30669 182.01 9.5401C182.536 9.76774 183.003 10.1093 183.38 10.5401C183.782 11.0137 184.082 11.5653 184.26 12.1601C184.484 12.8682 184.592 13.6077 184.58 14.3501C184.596 15.1205 184.481 15.8881 184.24 16.6201C184.049 17.2268 183.736 17.7882 183.32 18.2701C182.923 18.7046 182.435 19.0461 181.89 19.2701C181.323 19.5059 180.714 19.6249 180.1 19.6201C179.433 19.6406 178.772 19.4891 178.18 19.1801C177.684 18.906 177.257 18.5231 176.93 18.0601V22.7501H175.11V9.4801H176.61ZM182.68 14.3001C182.693 13.7683 182.619 13.2379 182.46 12.7301C182.336 12.3207 182.133 11.94 181.86 11.6101C181.608 11.3252 181.293 11.1027 180.94 10.9601C180.213 10.6628 179.398 10.6628 178.67 10.9601C178.31 11.1092 177.986 11.3343 177.72 11.6201C177.43 11.9397 177.211 12.3183 177.08 12.7301C176.913 13.2294 176.832 13.7535 176.84 14.2801C176.778 15.276 177.064 16.2626 177.65 17.0701C177.911 17.3921 178.242 17.6498 178.619 17.8232C178.995 17.9966 179.406 18.0811 179.82 18.0701C180.212 18.0855 180.602 18.0116 180.96 17.854C181.319 17.6963 181.637 17.459 181.89 17.1601C182.487 16.3318 182.767 15.3172 182.68 14.3001Z" fill="white"/>
<path d="M194.78 16.4998C194.658 16.9443 194.466 17.3664 194.21 17.7498C193.959 18.1369 193.641 18.4756 193.27 18.7498C192.879 19.037 192.443 19.2567 191.98 19.3998C191.456 19.5664 190.909 19.6474 190.36 19.6398C189.699 19.6459 189.043 19.5376 188.42 19.3198C187.841 19.1058 187.318 18.764 186.89 18.3198C186.444 17.8538 186.103 17.2981 185.89 16.6898C185.635 15.9537 185.514 15.1784 185.53 14.3998C185.515 13.6311 185.637 12.8659 185.89 12.1398C186.104 11.5287 186.444 10.9698 186.89 10.4998C187.31 10.0596 187.822 9.71802 188.39 9.4998C189.61 9.07298 190.939 9.07298 192.16 9.4998C192.725 9.70538 193.231 10.0491 193.63 10.4998C194.064 11.0059 194.385 11.5992 194.57 12.2398C194.819 13.0697 194.937 13.9335 194.92 14.7998H187.4C187.404 15.7297 187.762 16.6233 188.4 17.2998C188.968 17.8164 189.712 18.0955 190.48 18.0798C191.028 18.098 191.568 17.9403 192.02 17.6298C192.422 17.3549 192.721 16.9538 192.87 16.4898L194.78 16.4998ZM190.3 10.6598C189.618 10.6409 188.953 10.8802 188.44 11.3298C187.879 11.8561 187.524 12.5653 187.44 13.3298H193C192.985 12.5784 192.681 11.8617 192.15 11.3298C191.636 10.8868 190.978 10.6483 190.3 10.6598Z" fill="white"/>
<path d="M196.51 19.3402V9.48018H198L198.24 10.9402C198.431 10.4291 198.774 9.98859 199.223 9.67765C199.671 9.36671 200.204 9.20012 200.75 9.20018C200.959 9.18327 201.17 9.18327 201.38 9.20018L201.83 9.29018V11.1102C201.649 11.0596 201.465 11.0196 201.28 10.9902C201.077 10.9741 200.873 10.9741 200.67 10.9902C200.361 10.988 200.054 11.0492 199.77 11.1702C199.474 11.3002 199.216 11.5032 199.02 11.7602C198.777 12.0739 198.604 12.435 198.51 12.8202C198.372 13.3351 198.308 13.8672 198.32 14.4002V19.3502L196.51 19.3402Z" fill="white"/>
<path d="M208.46 16.6698C208.469 16.4151 208.399 16.1638 208.26 15.9498C208.115 15.7456 207.919 15.5835 207.69 15.4798C207.402 15.337 207.101 15.2231 206.79 15.1398L205.59 14.8498C204.685 14.7102 203.829 14.3458 203.1 13.7898C202.853 13.5637 202.658 13.2865 202.528 12.9774C202.399 12.6683 202.338 12.3347 202.35 11.9998C202.345 11.6108 202.433 11.226 202.607 10.878C202.781 10.5299 203.036 10.2288 203.35 9.99984C204.186 9.42854 205.191 9.15713 206.2 9.22984C207.168 9.1875 208.124 9.45363 208.93 9.98984C209.281 10.236 209.578 10.5508 209.803 10.9152C210.028 11.2797 210.177 11.6861 210.24 12.1098H208.38C208.34 11.8955 208.257 11.6913 208.137 11.5093C208.017 11.3273 207.862 11.1711 207.68 11.0498C207.231 10.7721 206.708 10.6394 206.18 10.6698C205.658 10.6293 205.135 10.7478 204.68 11.0098C204.536 11.0999 204.418 11.2252 204.335 11.3739C204.253 11.5227 204.21 11.6899 204.21 11.8598C204.207 12.034 204.238 12.2072 204.3 12.3698C204.382 12.5273 204.503 12.6615 204.65 12.7598C204.865 12.8973 205.097 13.0049 205.34 13.0798C205.721 13.2031 206.108 13.3033 206.5 13.3798C207.07 13.5098 207.59 13.6498 208.07 13.8098C208.496 13.9494 208.9 14.148 209.27 14.3998C209.592 14.634 209.855 14.9384 210.04 15.2898C210.237 15.6873 210.333 16.1267 210.32 16.5698C210.323 16.9991 210.227 17.4232 210.04 17.8098C209.853 18.1994 209.579 18.5413 209.24 18.8098C208.852 19.0976 208.415 19.3143 207.95 19.4498C207.381 19.6098 206.792 19.6873 206.2 19.6798C205.134 19.7352 204.079 19.4363 203.2 18.8298C202.838 18.568 202.537 18.23 202.32 17.8396C202.102 17.4491 201.973 17.0157 201.94 16.5698H203.8C203.827 16.8256 203.908 17.0726 204.039 17.2936C204.171 17.5147 204.348 17.7045 204.56 17.8498C205.061 18.1358 205.634 18.2712 206.21 18.2398C206.807 18.2807 207.4 18.1262 207.9 17.7998C208.081 17.6738 208.227 17.5042 208.325 17.3067C208.423 17.1091 208.47 16.8901 208.46 16.6698Z" fill="white"/>
<path d="M19.55 5.75H22.62L18.15 19.26H14.63L11.28 9.07L7.94 19.26H4.47L0 5.75H3.15L6.32 16L9.65 5.75H13L16.37 16.08L19.55 5.75Z" fill="white"/>
<path d="M35.8103 13.59H25.8103C25.9076 14.2891 26.1717 14.9545 26.5803 15.53C26.9458 16.0277 27.4354 16.4207 28.0003 16.67C28.5793 16.9137 29.2021 17.0362 29.8303 17.03C30.5134 17.024 31.1902 16.8988 31.8303 16.66C32.5055 16.4118 33.1368 16.0573 33.7003 15.61L35.1603 17.71C34.4133 18.3632 33.5428 18.8597 32.6003 19.17C31.6308 19.4794 30.6179 19.6313 29.6003 19.62C28.3465 19.6415 27.1089 19.3347 26.0103 18.73C24.9742 18.1523 24.1269 17.2877 23.5703 16.24C22.9648 15.0916 22.662 13.8079 22.6903 12.51C22.6633 11.2254 22.9554 9.9541 23.5403 8.81002C24.1004 7.75058 24.9547 6.8755 26.0003 6.29002C27.0627 5.68552 28.2682 5.3781 29.4903 5.40002C30.6586 5.37895 31.8092 5.6874 32.8103 6.29002C33.7768 6.90101 34.5528 7.77053 35.0503 8.80002C35.6081 9.94873 35.8857 11.2133 35.8603 12.49C35.8603 12.78 35.8403 13.14 35.8103 13.59ZM32.8103 11.35C32.7246 10.4342 32.3377 9.57262 31.7103 8.90002C31.4095 8.60261 31.0514 8.36946 30.6578 8.21475C30.2641 8.06003 29.8431 7.98697 29.4203 8.00002C28.977 7.97851 28.534 8.04719 28.118 8.20189C27.702 8.35658 27.3218 8.59409 27.0003 8.90002C26.3592 9.56318 25.9489 10.4153 25.8303 11.33L32.8103 11.35Z" fill="white"/>
<path d="M48.4195 6.32C49.4466 6.92727 50.2898 7.80161 50.8595 8.85C51.4691 9.97237 51.7791 11.2329 51.7595 12.51C51.7787 13.7839 51.4687 15.0411 50.8595 16.16C50.29 17.2153 49.4433 18.0952 48.4107 18.7049C47.3781 19.3146 46.1987 19.631 44.9995 19.62C44.1574 19.633 43.3232 19.4553 42.5595 19.1C41.8609 18.7627 41.2487 18.2701 40.7695 17.66V19.26H37.7695V0H40.7695V7.36C41.2513 6.74987 41.8627 6.25457 42.5595 5.91C43.3239 5.55785 44.1581 5.38349 44.9995 5.4C46.2021 5.38885 47.3848 5.70701 48.4195 6.32ZM46.8095 16.26C47.4206 15.88 47.9126 15.336 48.2295 14.69C48.5639 14.0126 48.7319 13.2653 48.7195 12.51C48.7308 11.7516 48.5629 11.0013 48.2295 10.32C47.9148 9.67515 47.422 9.13385 46.8095 8.76C46.1593 8.36522 45.41 8.16402 44.6495 8.18C43.9045 8.16555 43.1702 8.35951 42.5295 8.74C41.9162 9.11452 41.418 9.65082 41.0895 10.29C40.735 10.9755 40.5564 11.7384 40.5695 12.51C40.5563 13.2785 40.7351 14.0381 41.0895 14.72C41.4122 15.3632 41.9118 15.9009 42.5295 16.27C43.1677 16.6575 43.9031 16.8552 44.6495 16.84C45.4096 16.8527 46.158 16.6517 46.8095 16.26Z" fill="white"/>
<path d="M66.3696 13.5902H56.3696C56.4593 14.2896 56.7204 14.956 57.1296 15.5302C57.4947 16.0243 57.9801 16.4167 58.5396 16.6702C59.1301 16.9077 59.7635 17.02 60.3996 17.0002C61.0828 16.9942 61.7596 16.869 62.3996 16.6302C63.0749 16.3819 63.7061 16.0275 64.2696 15.5802L65.7296 17.6802C64.9827 18.3333 64.1121 18.8298 63.1696 19.1402C62.2001 19.4496 61.1873 19.6015 60.1696 19.5902C58.9188 19.6132 57.6841 19.3062 56.5896 18.7002C55.5505 18.1231 54.6998 17.2585 54.1396 16.2102C53.5342 15.0618 53.2313 13.7781 53.2596 12.4802C53.2327 11.1955 53.5247 9.92426 54.1096 8.78018C54.6482 7.73163 55.4735 6.8577 56.4896 6.26018C57.5608 5.66264 58.7735 5.36551 59.9996 5.40018C61.1709 5.38046 62.3244 5.68874 63.3296 6.29018C64.3095 6.89707 65.0994 7.76669 65.6096 8.80018C66.1674 9.94889 66.445 11.2135 66.4196 12.4902C66.4196 12.7802 66.3996 13.1402 66.3696 13.5902ZM63.3696 11.3502C63.2884 10.4332 62.901 9.5702 62.2696 8.90018C61.9712 8.60524 61.6164 8.37352 61.2263 8.21888C60.8363 8.06424 60.4191 7.98986 59.9996 8.00018C59.5564 7.97926 59.1135 8.0482 58.6977 8.20287C58.2818 8.35754 57.9015 8.59473 57.5796 8.90018C56.938 9.56178 56.5306 10.4152 56.4196 11.3302L63.3696 11.3502Z" fill="white"/>
<path d="M80.43 19.26H76.8L73.38 14.57L70 19.26H66.54L71.63 12.37L66.63 5.75H70.25L73.56 10.27L76.86 5.75H80.34L75.34 12.34L80.43 19.26Z" fill="white"/>
</g>
<defs>
<clipPath id="clip0">
<rect width="210.3" height="22.76" fill="white"/>
</clipPath>
</defs>
</svg>
